<?xml version="1.0" encoding="UTF-8"?>
<svg id="Layer_2" data-name="Layer 2" xmlns="http://www.w3.org/2000/svg" viewBox="0 0 1080.75 724.07">
  <defs>
    <style>
      .cls-1 {
        fill: #a6c2cc;
        stroke-width: 0px;
      }

      .cls-2 {
        fill: #5f3f17;
      }

      .cls-2, .cls-3, .cls-4, .cls-5, .cls-6, .cls-7, .cls-8, .cls-9, .cls-10, .cls-11 {
        stroke-miterlimit: 10;
      }

      .cls-2, .cls-3, .cls-4, .cls-6, .cls-7, .cls-8, .cls-11 {
        stroke: #231f20;
      }

      .cls-2, .cls-5, .cls-8, .cls-10, .cls-11 {
        stroke-width: 3px;
      }

      .cls-3 {
        fill: #bfbfbf;
      }

      .cls-3, .cls-4 {
        stroke-width: .75px;
      }

      .cls-4 {
        fill: #383535;
      }

      .cls-5 {
        fill: #5a85c4;
      }

      .cls-5, .cls-10 {
        stroke: #000;
      }

      .cls-6 {
        fill: #8ea7b2;
      }

      .cls-6, .cls-7 {
        stroke-width: 2px;
      }

      .cls-7 {
        fill: #b72726;
      }

      .cls-8 {
        fill: #231f20;
      }

      .cls-9 {
        fill: none;
        stroke: #23572b;
        stroke-width: 6px;
      }

      .cls-10 {
        fill: #4f3827;
      }

      .cls-11 {
        fill: #483114;
      }
    </style>
  </defs>
  <g id="Layer_1-2" data-name="Layer 1">
    <rect class="cls-3" x=".38" y=".38" width="1080" height="582.13"/>
    <rect class="cls-4" x=".46" y="464.29" width="1078.72" height="259.4"/>
    <g>
      <polygon class="cls-11" points="153.52 222.1 330.83 222.1 330.83 464.96 153.52 464.96 153.52 226.3 153.52 222.1"/>
      <rect class="cls-2" x="165.06" y="232.72" width="154.21" height="223.15"/>
      <rect class="cls-11" x="181.4" y="250.08" width="46.98" height="75.57"/>
      <rect class="cls-11" x="181.4" y="355.01" width="46.98" height="75.57"/>
      <rect class="cls-11" x="257.48" y="355.01" width="46.98" height="75.57"/>
      <rect class="cls-11" x="257.48" y="250.08" width="46.98" height="75.57"/>
      <circle class="cls-8" cx="304.46" cy="340.33" r="8.55"/>
    </g>
    <g>
      <path class="cls-6" d="M380.22,334.32c7.57,9.93,22.3,10.27,51.44,10.56,32,.31,47.93.41,55.97-10.56,8.87-12.11,3.99-31.13-2.77-42.24-14.69-24.15-46.27-24.14-51.69-24.14-.7,0-1.81,0-3.26.05-34.14,1.19-47.92,23.33-47.92,23.33-3.05,4.93-5.54,11.36-6.62,18.05-1.42,8.78-.43,18.02,4.85,24.94Z"/>
      <path class="cls-1" d="M443.32,340.84c0,.35,13.2.76,25.38-.97,1.87-.27,5.82-.88,9.95-3.57,1.42-.93,3.25-2.15,4.84-4.47,1.89-2.75,2.33-5.43,2.9-8.93.81-4.9.5-8.74.41-9.68-.66-7.32-3.44-12.86-3.59-12.8-.05.02.14.6.33,2.01,0,0,.16,1.22.22,2.61.03.74.22,15.26-9.68,25.31-8.71,8.85-20.81,9.73-28.15,10.27-1.4.1-2.62.12-2.63.22Z"/>
    </g>
    <g>
      <polygon class="cls-10" points="27.33 558.27 121.08 523.44 240.94 557.46 148.15 597.15 27.33 558.27"/>
      <polygon class="cls-10" points="146.86 611.19 242.23 570.69 240.94 557.46 148.15 597.15 146.86 611.19"/>
      <g>
        <polygon class="cls-10" points="25.72 569.61 146.86 611.19 148.15 597.15 27.33 558.27 25.72 569.61"/>
        <polygon class="cls-10" points="37.53 574.11 36.99 639.81 49.56 647.37 60.51 641.43 59.44 581.67 37.53 574.11"/>
        <polygon class="cls-10" points="134.29 676.53 147.18 683.01 161.36 676.26 156.31 607.59 146.64 611.73 137.19 607.95 134.29 676.53"/>
        <polygon class="cls-10" points="212.91 643.32 222.89 647.1 236.75 639.27 234.28 574.11 222.68 579.33 213.01 583.83 212.91 643.32"/>
        <polygon class="cls-10" points="90.48 592.56 90.15 613.35 100.14 618.75 112.06 612.27 112.22 599.99 101.11 595.26 90.48 592.56"/>
      </g>
    </g>
    <path class="cls-9" d="M91.83,478.84c-.1-1.42-.58-5.83-4.07-9.53-4.27-4.52-10-4.77-11.83-4.74-.16,0-1.44.02-2.83.29-7.51,1.47-13.22,9.31-14.95,11.85"/>
    <path class="cls-5" d="M74.74,555.24c4.38,9.79,28.16,13.34,40.85,1.1,11.45-11.04,8.25-29.51,6.13-41.72-.76-4.38-5.44-31.37-21.45-36.23-1.41-.43-7.6-2.31-11.23,1.1-5.53,5.19,1.44,16.46,1.02,31.84-.68,24.77-19.8,33.91-15.32,43.92Z"/>
    <path class="cls-7" d="M55.08,475.18c-6.13-1.77-12.02,4.95-15.06,8.43-1.91,2.18-3.61,4.75-3.06,5.36.84.94,6.53-3.48,7.66-2.3.92.96-1.94,4.84-1.28,5.36.75.59,4.58-4.14,6.13-3.32,1.48.79-.82,5.79.51,6.64,1.99,1.26,13.11-6.06,11.23-13.79-.72-2.97-3.25-5.55-6.13-6.38Z"/>
  </g>
</svg>